<svg width="24" height="24" viewBox="0 0 24 24" fill="none" xmlns="http://www.w3.org/2000/svg">
<path d="M22.53 13.4199L21.08 11.9699L22.48 10.5699C22.77 10.2799 22.77 9.79993 22.48 9.50993C22.19 9.21993 21.71 9.21993 21.42 9.50993L20.02 10.9099L18.57 9.45993C18.28 9.16993 17.8 9.16993 17.51 9.45993C17.22 9.74993 17.22 10.2299 17.51 10.5199L18.96 11.9699L17.47 13.4599C17.18 13.7499 17.18 14.2299 17.47 14.5199C17.62 14.6699 17.81 14.7399 18 14.7399C18.19 14.7399 18.38 14.6699 18.53 14.5199L20.02 13.0299L21.47 14.4799C21.62 14.6299 21.81 14.6999 22 14.6999C22.19 14.6999 22.38 14.6299 22.53 14.4799C22.82 14.1899 22.82 13.7199 22.53 13.4199Z" fill="#123456"/>
<path d="M14.02 3.77997C12.9 3.15997 11.47 3.31997 10.01 4.22997L7.09 6.05997C6.89 6.17997 6.66 6.24997 6.43 6.24997H5.5H5C2.58 6.24997 1.25 7.57997 1.25 9.99997V14C1.25 16.42 2.58 17.75 5 17.75H5.5H6.43C6.66 17.75 6.89 17.82 7.09 17.94L10.01 19.77C10.89 20.32 11.75 20.59 12.55 20.59C13.07 20.59 13.57 20.47 14.02 20.22C15.13 19.6 15.75 18.31 15.75 16.59V7.40997C15.75 5.68997 15.13 4.39997 14.02 3.77997Z" fill="#123456"/>
</svg>
